# xmcd CD database file
#
# Track frame offsets:
#	150
#	35448
#	70328
#	96620
#	135589
#	170392
#
# Disc length: 2549 seconds
#
# Revision: 0
# Processed by: cddbd v1.5.2PL0 Copyright (c) Steve Scherf et al.
# Submitted via: CDex 1.51
#
DISCID=5109f306
DTITLE=Sonny Rollins - A Night At The Village Vanguard  (Blue Note BLP 1581)
DYEAR=1958
DGENRE=Jazz
TTITLE0=Old Devil Moon
TTITLE1=Softly, As in a Morning Sunrise
TTITLE2=Striver's Row
TTITLE3=Sonnymoon for Two
TTITLE4=A Night In Tunisia
TTITLE5=I Can't Get Started
EXTD=YEAR: 1958
EXTT0=
EXTT1=
EXTT2=
EXTT3=
EXTT4=
EXTT5=
PLAYORDER=
